<svg xmlns="http://www.w3.org/2000/svg" viewBox="0 0 600 400" role="img" aria-label="Molido Casa">
  <defs>
    <linearGradient id="bg" x1="0" y1="0" x2="0" y2="1">
      <stop offset="0" stop-color="#6f4e37"/>
      <stop offset="1" stop-color="#3a291b"/>
    </linearGradient>
  </defs>
  <rect width="600" height="400" fill="url(#bg)"/>
  <circle cx="64" cy="338" r="120" fill="#ffffff" opacity="0.04"/>
  <circle cx="548" cy="66" r="92" fill="#ffffff" opacity="0.05"/>
  <text x="300" y="60" text-anchor="middle" font-family="Georgia, 'Times New Roman', serif" font-size="21" letter-spacing="6" fill="#f5efe6" opacity="0.85">CAFÉ AURORA</text>
  <line x1="252" y1="76" x2="348" y2="76" stroke="#f5efe6" stroke-width="2" opacity="0.45"/>
  
  <g>
    <path d="M236 165 L364 165 L374 322 Q374 338 358 338 L242 338 Q226 338 226 322 Z" fill="#f5efe6"/>
    <path d="M236 165 L300 138 L364 165 L300 188 Z" fill="#e7dccb"/>
    <rect x="262" y="214" width="76" height="86" rx="8" fill="#3a291b"/>
    <path d="M300 244 q-16 0 -16 14 q0 12 16 22 q16 -10 16 -22 q0 -14 -16 -14 Z" fill="#f5efe6"/>
    <path d="M300 248 Q294 262 300 276" fill="none" stroke="#3a291b" stroke-width="3"/>
  </g>
  <text x="300" y="362" text-anchor="middle" font-family="Georgia, 'Times New Roman', serif" font-size="25" fill="#f5efe6">Molido Casa</text>
</svg>
