<svg xmlns="http://www.w3.org/2000/svg" viewBox="0 0 600 400" role="img" aria-label="Taza Aurora Cerámica">
  <defs>
    <linearGradient id="bg" x1="0" y1="0" x2="0" y2="1">
      <stop offset="0" stop-color="#5a4636"/>
      <stop offset="1" stop-color="#2f2418"/>
    </linearGradient>
  </defs>
  <rect width="600" height="400" fill="url(#bg)"/>
  <circle cx="64" cy="338" r="120" fill="#ffffff" opacity="0.04"/>
  <circle cx="548" cy="66" r="92" fill="#ffffff" opacity="0.05"/>
  <text x="300" y="60" text-anchor="middle" font-family="Georgia, 'Times New Roman', serif" font-size="21" letter-spacing="6" fill="#f5efe6" opacity="0.85">CAFÉ AURORA</text>
  <line x1="252" y1="76" x2="348" y2="76" stroke="#f5efe6" stroke-width="2" opacity="0.45"/>
  
  <g>
    <path d="M284 142 q-13 -11 0 -22 q13 -11 0 -24" fill="none" stroke="#f5efe6" stroke-width="6" stroke-linecap="round" opacity="0.6"/>
    <path d="M316 142 q13 -11 0 -22 q-13 -11 0 -24" fill="none" stroke="#f5efe6" stroke-width="6" stroke-linecap="round" opacity="0.6"/>
    <path d="M250 182 L350 182 L342 304 Q340 324 318 324 L282 324 Q260 324 258 304 Z" fill="#f5efe6"/>
    <ellipse cx="300" cy="182" rx="50" ry="13" fill="#2f2418"/>
    <path d="M350 206 q44 6 44 48 q0 44 -48 44" fill="none" stroke="#f5efe6" stroke-width="15"/>
  </g>
  <text x="300" y="362" text-anchor="middle" font-family="Georgia, 'Times New Roman', serif" font-size="25" fill="#f5efe6">Taza Aurora Cerámica</text>
</svg>
